<?xml version="1.0" encoding="UTF-8"?><svg id="a" xmlns="http://www.w3.org/2000/svg" viewBox="0 0 128.14 123.26"><defs><style>.b{fill:#fff;}.c{fill:#ce0538;}</style></defs><rect class="b" y="59.5" width="128.14" height="4.12"/><rect class="c" y="63.13" width="128.14" height="60.12"/><path class="b" d="M116.85,82.15c-.69,.42-3.37,.45-4.99,.45-.03-1.95-.03-4.09-.03-6.1,0-1.08,.06-2.24,.09-3.38,.03-.57-.15-.87-1.17-.87h-1.2c.09,1.47,.15,2.9,.15,4.29v3.16c0,1.11-.03,2.22-.09,3.37-.03,.45,.06,.87,1.08,.87h5.38c.42,0,.78-.51,.78-.84v-.93Zm-27.77-4.03l-1.29,.03c.15,.45,.15,1.71,.15,2.52,0,.57-.03,1.14-.03,1.71-.69,.3-1.74,.39-2.5,.39-2.8,0-4.45-1.98-4.45-4.66s1.53-4.78,4.36-4.78c1.53,0,3.13,.93,3.88,1.62l.36-1.02c.15-.54-.06-.87-.39-1.02-1.2-.51-2.17-.78-3.85-.78-3.91,0-6.76,1.83-6.76,5.98s2.92,5.95,6.67,5.95c1.41,0,3.4-.39,4.81-.81v-1.53c0-.93,0-1.77,.03-2.74,.03-.45-.33-.9-.99-.87Zm11.43,14.28h-1.92c.03,.24-.03,.72-.15,.96-.39,.81-.87,1.65-1.32,2.47-.51,.93-1.44,2.46-1.92,3.22-1.17-1.89-2.16-3.85-3.22-5.8-.24-.45-.66-.81-1.5-.81h-2.34c2.01,2.89,3.58,5.5,5.26,8.36,0,1.65,.03,3.79-.12,5.53-.03,.51,.3,.81,.96,.81h2.13c-.21-2.1-.21-4.48-.21-6.49,1.38-2.5,2.98-4.81,4.69-7.33,.12-.18,.18-.36,.15-.51,0-.21-.15-.39-.48-.39Zm-30.65-17.48c0-1.05,.93-1.65,1.92-1.65,1.08,0,1.95,.6,2.53,1.44,.21-.36,.63-.93,.63-1.44,0-.99-2.25-1.23-3.01-1.23-2.01,0-4,1.11-4,3.31,0,3.91,5.47,2.83,5.47,5.38,0,1.23-.87,1.98-2.1,1.98s-2.67-.69-3.34-1.71c-.09,.45-.3,.93-.3,1.41s.18,.84,.63,1.05c.72,.39,1.65,.57,2.46,.57,2.31,0,4.54-1.32,4.54-3.85,0-3.67-5.44-2.56-5.44-5.26Zm-4.72-2.72l-1.56,.03c0,.42-.63,1.56-1.29,2.68-.66,1.05-1.32,2.1-1.62,2.52-.93-1.5-1.83-3.04-2.74-4.54-.3-.51-.72-.66-1.29-.66h-1.89c1.62,2.22,3.13,4.51,4.57,6.85v1.32c.03,1.08-.09,2.25-.09,2.89,0,.48,.42,.6,.78,.6h1.59c-.18-1.65-.18-3.37-.18-5.05,.84-1.44,1.77-2.83,2.77-4.18,.39-.6,.84-1.17,1.23-1.74,.06-.12,.15-.24,.15-.39,0-.24-.21-.33-.42-.33Zm-13.35,.07h-6.61c.03,.63,.09,1.2,.15,1.83,.03,1.11,.06,3.46,.06,4.3,0,2.01-.09,3.09-.09,4.65,0,.6,.33,.84,.9,.84h1.44c-.09-1.35-.18-2.67-.18-4.02v-1.53c1.05,0,3.7,.03,4.63,.3,0-.54,.15-1.56-.66-1.56-.87,0-2.38,.18-3.97,.18v-2.44c0-.45,.03-.9,.06-1.35,1.23,0,3.79-.03,4.96,.42,0-.6,.18-1.62-.69-1.62Zm-12.23,5.23c0-2.31,.12-2.86,.12-4.3,0-.66-.24-.99-.96-.99h-1.38c.12,1.14,.18,2.37,.18,5.41s-.12,3.52-.12,5.29c0,.6,.3,.96,.9,.96h1.44c-.12-1.32-.18-3.28-.18-6.37Zm9.1,24.17c-1.2,.6-2.8,.6-4.54,.6-.45,0-.51-.27-.54-.81v-4.21c1.62,0,3.34,.06,4.42,.42l.06-.93c.03-.63-.33-.87-1.2-.87-.96,0-2.07,.15-3.31,.15,0-.72,.03-1.65,.03-2.38,0-.6,.03-1.5,.06-2.1,3.52,0,4.39,.3,4.9,.51v-.66c0-.6-.45-1.17-1.14-1.17h-6.61c.3,.33,.33,1.53,.33,1.95,.06,1.77,.03,4.3,.03,6.46,0,1.26-.03,2.56-.09,3.88-.03,.66,.12,1.05,.81,1.05h5.71c.6,0,1.08-.3,1.08-.93v-.96Zm-20-11.6c-2.04-1.05-4.69-1.65-7.09-1.65-8.06,0-13.41,6.49-13.41,14.43s5.86,12.68,13.35,12.68c2.49,0,5.83-.72,7.85-2.25l-.3-2.55c-1.35,1.41-4.06,2.55-6.01,2.55-6.64,0-11.06-5.5-11.06-11.9,0-5.47,3.13-10.88,9.14-10.88,2.01,0,4.06,.63,5.56,1.95,.72,.63,1.65,1.89,1.74,2.83,.57-.87,1.53-2.41,1.53-3.46,0-.81-.66-1.41-1.29-1.74Zm71.19-17.93c-3.85,0-6.46,2.04-6.46,5.98,0,3.7,2.89,5.95,6.46,5.95s6.49-2.22,6.49-5.95-2.88-5.98-6.49-5.98Zm0,10.73c-2.7,0-4.06-2.28-4.06-4.75s1.35-4.78,4.06-4.78,4.09,2.22,4.09,4.78c0,2.77-.99,4.75-4.09,4.75Zm11.59,7.38c-2.13,0-4.36,0-6.52,.03,.27,.33,.45,1.05,.48,1.53,.15,1.98,.24,3.91,.24,5.92-2.05,0-4.21,0-6.25,.03,.27,.33,.42,1.05,.48,1.53,.18,2.13,.24,4.15,.24,6.28,0,2.74-.06,5.5-.18,8.24-.03,.42,.36,.72,.81,.72h4.87c5.26,0,9.17-2.83,9.44-8.12,3.34-1.14,5.53-3.88,5.53-8.06,0-5.83-3.73-8.12-9.14-8.12Zm3.58,14.34c-.42-4.09-2.98-6.1-6.67-6.67,0-2.25,.09-4.21,.18-6.28,.69-.09,1.05-.15,1.77-.15,4.33,0,7.33,2.59,7.33,7.03,0,2.62-.84,4.84-2.61,6.07Zm-3.64,1.02h-2.04c-.51,0-.78-.27-.81-.69-.12-1.8-.21-3.61-.21-5.23,2.22,.99,3.67,3.04,3.79,5.89-.24,0-.48,.03-.72,.03Zm-5.5,7.49h-2.07c-.51,0-.81-.24-.84-.66-.12-1.98-.18-3.79-.18-5.8,0-2.5,.06-5.14,.21-7.52,.66-.09,1.08-.12,1.77-.12,.3,0,.6,0,.87,.03,0,2.44-.06,4.87-.18,7.31,0,.42,.36,.69,.81,.69h4.87c.3,0,.63,0,.93-.03-.3,3.52-2.22,6.1-6.19,6.1Zm-28.96-22.79c-2.67,0-5.59,.06-7.91,.06,.45,.63,.63,1.83,.75,4.27,.09,1.77,.15,3.58,.15,5.38,0,2.19-.03,4.39-.09,6.58-.06,1.2-.15,2.38-.15,3.58,0,.57,.48,.87,.99,.87h6.01c6.67,0,11.66-3.7,11.66-10.7s-4.75-10.04-11.42-10.04Zm.06,18.97h-2.55c-.6,0-.9-.21-1.02-.81-.09-.6-.12-1.47-.15-2.1-.06-1.35-.09-3.37-.09-5.05,0-3.1,.15-6.19,.27-9.26,.72-.12,1.47-.18,2.22-.18,5.35,0,9.05,3.04,9.05,8.66,0,4.96-2.4,8.75-7.73,8.75Zm-16.15-6.34c3.13-.99,5.38-3.46,5.38-6.85,0-4.33-3.88-5.92-7.64-5.92-2.44,0-4.9,.06-7.36,.09,.3,.51,.42,1.74,.42,2.38,0,2.98,.06,5.68,.06,7.75,0,5.74-.27,9.05-.27,10.13,0,.45,.18,.51,.57,.51,1.29,0,2.53-.03,3.79-.03-.18-.18-.3-.6-.39-1.14-.27-1.92-.39-4.18-.39-6.28,.81,0,1.74-.03,2.55-.06,1.06,1.68,2.38,3.63,3.88,5.62,2.27,2.97,5.34,6.4,8.93,6.4,.93,0,1.74-.09,2.67-.18-4.2-1.48-9.67-8.63-12.19-12.42Zm-3.76-.84c-.72,0-1.38,.03-2.1,.03v-3.64c0-2.16,.03-4.63,.18-6.73,.63-.06,1.35-.12,2.04-.12,3.07,0,5.53,1.62,5.53,4.93s-2.44,5.53-5.65,5.53Zm-27.29-23.18c1.56-.48,2.92-1.56,2.92-3.43,0-2.49-2.19-3.22-4.27-3.22-.93,0-1.89-.03-2.83-.03-.45,0-.93,.03-1.38,.03,.15,.21,.24,.51,.27,.78,.09,1.29,.06,3.28,.06,4.9,0,1.14-.03,2.31-.06,3.46-.03,.57-.06,1.11-.06,1.68,0,.54,.33,.75,.84,.75s1.02-.03,1.53-.06c-.18-.96-.21-3.1-.21-4.54h1.23c.9,1.44,1.77,2.83,2.83,4.21,.87,1.2,1.86,1.68,3.37,1.68h.63c-.75-.48-3.28-3.79-4.87-6.22Zm-2.56-.63h-.66v-1.17c0-.87,.03-2.95,.06-3.85,.36,0,.69-.03,1.02-.03,1.53,0,2.98,.87,2.98,2.52,0,1.98-1.74,2.56-3.4,2.53Zm-10.27-5.97l-4.24-.03c.18,.27,.24,1.2,.27,2.1,.06,1.68,0,3.4,0,5.05,0,1.17-.06,2.31-.06,3.49,0,.54,.24,.96,.84,.96h1.44c-.12-1.41-.15-3.04-.15-4.54,.36,.03,.72,.03,1.08,.03,2.38,0,4.96-1.14,4.96-3.88,0-2.44-2.07-3.16-4.15-3.19Zm-.96,6.1c-.3,0-.69-.06-.93-.06v-4.99l1.17-.03c1.53-.03,2.71,.6,2.71,2.31,0,1.83-1.29,2.77-2.95,2.77Zm24.74,29.27l-6.25-14.31c-.21-.54-.39-.9-1.02-.9h-.39l-7.21,15.33c-.15,.3-.18,.48-.18,.72,0,.3,.33,.36,.6,.36h1.59c-.03-.09-.03-.24-.03-.36,0-.27,.06-.57,.18-.9l1.53-3.73h6.19l1.68,4.18c.21,.51,.45,.78,1.05,.78h3.07c-.3-.21-.66-.84-.81-1.17Zm-10.55-5.11l2.62-6.07,2.4,6.07h-5.02Z"/><rect class="c" width="128.14" height="60.12"/><path class="b" d="M119.58,7.48h-12.38c.42,2.44,.48,6.85,.48,11.96,0,4.12-.33,11.09-.33,12.33,0,.78,.45,1.2,1.23,1.2h3.16c-.21-.48-.3-1.2-.33-1.74-.27-3.7-.36-7.46-.36-11.15,.51-.03,1.71-.12,1.89-.12,1.77,0,4.24,0,5.86,.69,.15-.39,.36-.81,.36-1.23,0-.93-.96-1.14-1.71-1.14h-6.4c0-3.01,.12-6.01,.24-9.02h1.98c1.77,0,6.4,0,7.82,.87,.15-.42,.12-.93,.12-1.38,0-.84-.78-1.26-1.62-1.26Zm-15.84,1.32h-10.7c.6,1.05,.57,8.51,.57,10.04,0,3.22-.3,7.82-.3,9.65,0,.6,.27,1.17,.96,1.17h3.19c-.3-.81-.45-2.25-.51-4.15-.06-1.68-.06-3.76-.06-6.1,.45,0,1.29-.09,1.86-.09,1.68,0,3.34,.03,4.9,.69,0-.45,.12-.9,.12-1.35,0-.69-.6-.99-1.23-.99h-5.62c0-2.38,.12-4.72,.21-7.09,.69,0,1.38-.03,2.08-.03,1.95,0,4.72,.06,6.49,.87v-.09c0-1.35-.39-2.53-1.95-2.53Zm-15.08,10.76c0-1.71,.06-3.43,.09-5.11,.03-.9,.12-1.83,.12-2.74,0-.45-.45-.69-.84-.69h-2.89c.42,2.13,.39,5.71,.39,7.97,0,1.65-.03,3.34-.09,5.02,0,.75-.06,1.56-.06,2.31,0,.57,.36,.99,.93,.99,.93,0,1.83-.03,2.77-.06-.39-1.38-.42-6.1-.42-7.7Zm28.52,19.78l-1.53,.03c-.03,.39-.63,1.56-1.32,2.68-.63,1.05-1.32,2.1-1.59,2.5-.96-1.47-1.83-3.01-2.76-4.51-.3-.51-.69-.66-1.26-.66h-1.92c1.65,2.22,3.16,4.51,4.6,6.85v1.29c0,1.11-.12,2.22-.12,2.86,0,.45,.42,.6,.81,.6h1.56c-.15-1.65-.18-3.31-.18-4.99,.84-1.44,1.8-2.83,2.76-4.18,.42-.6,.84-1.17,1.23-1.74,.09-.12,.15-.24,.15-.39,0-.24-.21-.33-.42-.33Zm-11.35,.03h-8.51c-.63,0-1.26,.36-1.26,1.05v.63c.87-.18,2.77-.21,3.82-.21,.06,1.38,.06,2.74,.06,4.12,0,2.37-.12,3.49-.12,5.23,0,.6,.36,.78,.93,.78h1.44c-.18-1.65-.18-3.31-.18-5.92,0-1.38-.03-3.19,.03-4.21,1.14,0,2.25,.15,3.07,.15,.57,0,.72-.57,.72-1.05v-.57Zm-11.7,5.23c0-2.31,.12-2.86,.12-4.3,0-.66-.24-.99-.96-.99h-1.38c.12,1.14,.18,2.38,.18,5.41s-.12,3.55-.12,5.29c0,.6,.3,.96,.9,.96h1.44c-.12-1.32-.18-3.28-.18-6.37Zm-10.56-2.59c0-1.05,.93-1.62,1.92-1.62,1.08,0,1.95,.57,2.53,1.41,.21-.36,.63-.93,.63-1.44,0-.99-2.25-1.2-2.98-1.2-2.04,0-4.03,1.08-4.03,3.28,0,3.91,5.47,2.83,5.47,5.38,0,1.23-.87,2.01-2.1,2.01s-2.68-.72-3.34-1.74c-.09,.45-.3,.93-.3,1.41s.18,.84,.63,1.05c.72,.39,1.65,.6,2.47,.6,2.31,0,4.54-1.32,4.54-3.88,0-3.67-5.44-2.56-5.44-5.26Zm-16.76,7.21c-.93,.45-2.5,.48-3.52,.48h-.81c-.45,0-.45-.24-.45-.63-.03-.3-.03-2.44-.03-2.74v-.9c1.17,0,3.16,.03,4.24,.36,.03-.3,.06-.63,.06-.93,0-.54-.39-.69-.87-.69-1.11,0-2.32,.12-3.43,.12v-1.98c0-.57,.06-1.17,.09-1.77,1.11,0,3.61,0,4.63,.42,0-.69,0-1.59-.99-1.59h-6.13c.12,.15,.21,.48,.24,.66,.09,1.41,.09,2.83,.09,4.24,0,1.95-.09,3.91-.09,5.86,0,.48,.15,.78,.69,.78h5.38c.51,0,.9-.27,.9-.81v-.87Zm-9.6-9.92h-1.63c.15,.45-.21,1.47-.39,1.86-.9,2.22-2.11,5.01-3.04,6.9-.61-1.26-1.53-3.52-2.28-5.33-.39-.9-.69-1.69-1.08-2.6-.3-.69-.75-.81-1.47-.84-.45,0-1.02-.03-1.5-.03,1.8,3.85,3.61,7.73,5.2,11.69h1.53c1.53-3.73,3.28-7.33,4.99-11,.03-.06,.06-.12,.06-.21,0-.24-.15-.45-.39-.45ZM28.71,8.63c-2.01-1.05-4.66-1.65-7.06-1.65-8.06,0-13.41,6.49-13.41,14.43s5.86,12.69,13.35,12.69c2.5,0,5.83-.72,7.85-2.25l-.3-2.56c-1.35,1.44-4.06,2.56-6.04,2.56-6.61,0-11.03-5.5-11.03-11.9,0-5.47,3.13-10.85,9.14-10.85,2.01,0,4.06,.63,5.56,1.95,.69,.6,1.65,1.86,1.74,2.83,.57-.9,1.53-2.44,1.53-3.49,0-.81-.66-1.41-1.32-1.74Zm14.64,35.98c0-2.31,.12-2.86,.12-4.3,0-.66-.21-.99-.93-.99h-1.41c.12,1.14,.18,2.38,.18,5.41s-.12,3.55-.12,5.29c0,.6,.3,.96,.93,.96h1.41c-.12-1.32-.18-3.28-.18-6.37Zm-6.32-5.23h-1.2c.09,1.95,.12,3.91,.12,5.86v2.01c-2.83-2.62-5.44-5.29-8.21-8h-.81c.03,.54,.03,1.11,.03,1.68,0,2.25,.03,5.32-.09,6.76-.09,1.53-.21,1.92-.21,2.77,0,.39,.21,.51,.6,.51,.42,0,.84-.03,1.29-.03-.18-1.23-.21-2.46-.21-3.73,0-1.44,.06-2.8,.06-4.24,2.8,2.74,5.56,5.29,8.21,8.18h.81c-.06-1.95-.09-3.91-.09-5.83,0-1.08,.09-2.07,.12-3.07,.03-.84,.15-1.77,.15-2.28,0-.39-.21-.6-.57-.6Zm-14.39-.06h-1.08c.18,1.23,.21,2.01,.21,3.25,0,.69-.03,1.95-.03,2.95,0,2.37-.72,4.24-3.49,4.24-3.19,0-3.52-1.92-3.52-4.63,0-1.74,.18-3.79,.18-5.26,0-.39-.24-.54-.63-.54h-1.68c.09,1.29,.12,2.13,.12,4.15,0,.84-.06,1.98-.06,2.86,0,3.46,1.95,4.84,5.26,4.84s5.14-1.68,5.26-4.9c.09-3.07,.27-5.29,.27-6.31,0-.51-.36-.63-.81-.63ZM70.79,8.9c-2.71,0-5.62,.03-7.91,.03,.42,.66,.6,1.86,.72,4.3,.12,1.77,.15,3.58,.15,5.38,0,2.19-.03,4.36-.09,6.55-.03,1.2-.12,2.41-.12,3.61,0,.54,.48,.87,.99,.87h5.98c6.7,0,11.69-3.7,11.69-10.7s-4.75-10.04-11.42-10.04Zm.06,18.97h-2.56c-.63,0-.93-.21-1.02-.84-.12-.6-.12-1.44-.15-2.07-.06-1.35-.09-3.37-.09-5.05,0-3.1,.12-6.19,.24-9.29,.75-.12,1.5-.15,2.25-.15,5.35,0,9.02,3.04,9.02,8.66,0,4.93-2.38,8.75-7.7,8.75Zm4.63,18.13c1.56-.45,2.92-1.53,2.92-3.4,0-2.5-2.16-3.22-4.27-3.22-.93,0-1.86-.03-2.83-.03-.45,0-.9,0-1.38,.03,.18,.21,.24,.51,.27,.78,.09,1.29,.06,3.25,.06,4.87,0,1.17-.03,2.34-.06,3.49-.03,.54-.06,1.11-.06,1.65,0,.57,.33,.75,.84,.75s1.02-.03,1.53-.03c-.18-.96-.21-3.1-.21-4.54h1.23c.9,1.44,1.77,2.8,2.83,4.21,.87,1.2,1.86,1.68,3.37,1.68h.63c-.75-.48-3.25-3.82-4.87-6.25Zm-2.56-.6h-.66v-1.17c0-.87,.03-2.98,.09-3.85,.33,0,.66-.03,.99-.03,1.53,0,2.98,.87,2.98,2.52,0,1.98-1.74,2.52-3.4,2.52Zm-30.96-19.18l-6.25-14.31c-.24-.54-.39-.9-1.02-.9l-.39,.03-7.21,15.3c-.15,.33-.18,.48-.18,.75s.33,.33,.6,.33h1.59c-.03-.09-.03-.24-.03-.36,0-.27,.06-.57,.18-.9l1.53-3.73h6.16l1.71,4.21c.21,.51,.45,.75,1.05,.75h3.07c-.3-.21-.66-.84-.81-1.17Zm-10.58-5.11l2.65-6.07,2.4,6.07h-5.05Zm22.74,.46c3.13-.99,5.38-3.46,5.38-6.85,0-4.33-3.88-5.92-7.64-5.92-2.44,0-4.9,.06-7.36,.09,.3,.51,.42,1.74,.42,2.37,0,2.98,.06,5.68,.06,7.76,0,5.74-.27,9.05-.27,10.13,0,.45,.18,.51,.57,.51,1.29,0,2.53-.03,3.79-.03-.18-.18-.3-.6-.39-1.14-.27-1.92-.39-4.18-.39-6.28,.81,0,1.74-.03,2.55-.06,1.06,1.68,2.38,3.63,3.88,5.62,2.27,2.97,5.34,6.4,8.93,6.4,.93,0,1.74-.09,2.67-.18-4.2-1.48-9.67-8.63-12.19-12.41Zm-3.76-.84c-.72,0-1.38,.03-2.1,.03v-3.64c0-2.16,.03-4.63,.18-6.73,.63-.06,1.35-.12,2.04-.12,3.07,0,5.53,1.62,5.53,4.93s-2.44,5.53-5.65,5.53Z"/></svg>