<?xml version="1.0" encoding="utf-8"?>
<!-- Generator: Adobe Illustrator 25.1.0, SVG Export Plug-In . SVG Version: 6.00 Build 0)  -->
<svg version="1.1" id="Layer_1" xmlns="http://www.w3.org/2000/svg" xmlns:xlink="http://www.w3.org/1999/xlink" x="0px" y="0px"
	 viewBox="0 0 300 131" enable-background="new 0 0 300 131" xml:space="preserve">
<g>
	<g>
		<path fill="#002337" d="M248.806,127.332c2.923,0,4.796-1.462,6.444-5.47l8.131-20.008h-3.072l-6.22,16.148l-7.043-16.148h-3.185
			l8.805,19.296c-1.161,2.736-2.249,3.635-3.971,3.635c-1.237,0-2.1-0.225-3.036-0.712l-0.974,2.285
			C245.996,126.994,247.195,127.332,248.806,127.332 M237.903,121.562c1.386,0,2.474-0.298,3.484-0.823v-2.474
			c-1.01,0.487-1.835,0.674-2.81,0.674c-1.949,0-3.259-0.861-3.259-3.221v-11.314h6.144v-2.549h-6.144v-5.844h-2.885v5.844h-2.698
			v2.549h2.698v11.688C232.433,120.027,234.793,121.562,237.903,121.562 M222.58,121.226h2.885v-19.371h-2.885V121.226z
			 M222.393,97.621h3.297v-3.185h-3.297V97.621z M210.817,121.6c3.857,0,6.894-2.136,6.894-5.806v-0.076
			c0-3.484-3.223-4.647-6.22-5.546c-2.585-0.785-4.983-1.497-4.983-3.335v-0.074c0-1.613,1.462-2.812,3.746-2.812
			c1.873,0,3.933,0.712,5.733,1.875l1.31-2.173c-1.984-1.312-4.607-2.136-6.967-2.136c-3.822,0-6.596,2.209-6.596,5.544v0.076
			c0,3.559,3.372,4.609,6.407,5.47c2.549,0.712,4.834,1.462,4.834,3.41v0.073c0,1.873-1.686,3.072-4.009,3.072
			c-2.285,0-4.609-0.899-6.707-2.472l-1.462,2.06C204.971,120.514,208.043,121.6,210.817,121.6 M189.984,121.226h2.885v-7.719
			c0-5.844,3.448-8.878,7.681-8.878h0.225v-3.11c-3.673-0.151-6.482,2.173-7.906,5.395v-5.059h-2.885V121.226z M170.277,110.397
			c0.414-3.746,2.961-6.518,6.295-6.518c3.822,0,5.844,2.997,6.182,6.518H170.277z M170.277,112.721h15.363
			c0.038-0.451,0.038-0.75,0.038-1.012c0-5.695-3.299-10.266-9.029-10.266c-5.359,0-9.292,4.496-9.292,10.115
			c0,6.033,4.345,10.117,9.666,10.117c3.671,0,6.033-1.462,7.98-3.635l-1.798-1.611c-1.573,1.648-3.448,2.734-6.106,2.734
			C173.687,119.164,170.691,116.804,170.277,112.721 M154.918,121.375h2.547l8.429-19.52h-3.108l-6.558,16.074l-6.518-16.074h-3.186
			L154.918,121.375z M139.594,121.226h2.885v-19.371h-2.885V121.226z M139.407,97.621h3.297v-3.185h-3.297V97.621z M117.001,121.226
			h2.885v-11.091c0-3.633,2.474-6.069,5.808-6.069c3.41,0,5.357,2.247,5.357,5.844v11.316h2.885v-12.028
			c0-4.607-2.734-7.755-7.419-7.755c-3.335,0-5.357,1.686-6.631,3.784v-3.372h-2.885V121.226z M100.293,121.638
			c6.556,0,10.94-3.971,10.94-11.614V94.999h-2.961v15.249c0,5.733-3.072,8.656-7.904,8.656c-5.021,0-8.019-3.186-8.019-8.843
			V94.999H89.39v15.249C89.39,117.667,93.81,121.638,100.293,121.638"/>
		<path fill="#002337" d="M264.319,83.791v-2.383h-0.17c-1.249,0-2.337-0.218-3.265-0.653c-0.926-0.435-1.39-1.485-1.39-3.152
			V65.625c0-1.627,0.208-3.141,0.624-4.542c0.418-1.399,1.098-2.526,2.045-3.377c0.945-0.853,2.251-1.277,3.916-1.277
			c2.194,0,3.738,0.68,4.626,2.043c0.89,1.363,1.336,3.274,1.336,5.733v19.585h9.876v-2.383h-0.17c-1.287,0-2.337-0.237-3.15-0.71
			c-0.815-0.472-1.22-1.6-1.22-3.379V64.888c0-1.514,0.197-2.915,0.596-4.202c0.397-1.285,1.05-2.318,1.957-3.093
			c0.909-0.775,2.159-1.163,3.748-1.163c2.194,0,3.736,0.68,4.626,2.043c0.888,1.363,1.333,3.274,1.333,5.733v19.585h9.878v-2.383
			h-0.17c-1.287,0-2.337-0.237-3.15-0.71c-0.815-0.472-1.222-1.6-1.222-3.379V63.922c0-3.897-0.823-6.726-2.469-8.486
			c-1.646-1.76-3.908-2.642-6.783-2.642c-1.741,0-3.379,0.332-4.912,0.995c-1.533,0.661-2.866,2.052-4.002,4.172h-0.454
			c-0.718-1.892-1.816-3.227-3.293-4.002c-1.476-0.777-3.123-1.165-4.939-1.165c-1.741,0-3.32,0.332-4.739,0.995
			c-1.419,0.661-2.696,2.052-3.832,4.172h-0.283l-0.737-4.599h-8.914v2.383h0.17c1.249,0,2.291,0.227,3.122,0.682
			c0.832,0.454,1.249,1.514,1.249,3.179v17.71c0,1.779-0.407,2.906-1.22,3.379c-0.815,0.472-1.865,0.71-3.152,0.71h-0.737v2.383
			H264.319z M224.98,75.559c0-2.232,0.615-3.925,1.844-5.08c1.231-1.155,3.454-1.808,6.671-1.959l3.633-0.17v4.599
			c0,2.421-0.68,4.343-2.043,5.76c-1.363,1.42-3.198,2.129-5.506,2.129C226.513,80.838,224.98,79.079,224.98,75.559 M232.132,83.648
			c1.023-0.472,1.911-1.115,2.669-1.93c0.756-0.813,1.533-1.749,2.327-2.81h0.454l0.909,4.882h7.662v-2.383h-0.17
			c-1.287,0-2.194-0.286-2.724-0.853c-0.531-0.567-0.796-1.646-0.796-3.236V62.616c0-3.595-0.861-6.13-2.583-7.606
			c-1.722-1.476-4.324-2.215-7.805-2.215c-1.892,0-3.605,0.181-5.138,0.54c-1.531,0.361-2.761,0.947-3.689,1.76
			c-0.928,0.815-1.39,1.865-1.39,3.152c0,1.287,0.405,2.205,1.22,2.753c0.815,0.548,2.016,0.823,3.605,0.823
			c0-1.174,0.122-2.232,0.37-3.179c0.246-0.945,0.745-1.684,1.504-2.213c0.756-0.531,1.854-0.796,3.293-0.796
			c1.552,0,2.705,0.304,3.463,0.909c0.756,0.605,1.249,1.428,1.476,2.469c0.227,1.042,0.34,2.243,0.34,3.603v3.406l-4.712,0.17
			c-4.351,0.153-7.597,0.947-9.735,2.385c-2.138,1.438-3.206,3.671-3.206,6.699c0,3.104,0.832,5.392,2.497,6.869
			s3.765,2.213,6.302,2.213C229.825,84.358,231.11,84.123,232.132,83.648 M199.152,83.791v-2.383h-0.172
			c-1.247,0-2.337-0.218-3.263-0.653c-0.928-0.435-1.39-1.485-1.39-3.152V65.625c0-2.799,0.556-5.033,1.674-6.699
			c1.117-1.665,2.847-2.497,5.195-2.497c2.308,0,3.925,0.68,4.853,2.043c0.928,1.363,1.392,3.274,1.392,5.733v19.585h9.876v-2.383
			h-0.17c-1.287,0-2.337-0.237-3.15-0.71c-0.815-0.472-1.22-1.6-1.22-3.379V63.922c0-3.897-0.861-6.726-2.583-8.486
			c-1.724-1.76-4.212-2.642-7.465-2.642c-3.862,0-6.642,1.724-8.345,5.168H194.1c0.073-1.023,0.13-1.911,0.17-2.669
			c0.036-0.756,0.057-1.476,0.057-2.157v-12.49H183.88v2.385h0.456c1.247,0,2.335,0.227,3.263,0.68s1.39,1.514,1.39,3.179v30.427
			c0,1.779-0.454,2.906-1.361,3.379c-0.909,0.472-2.007,0.71-3.293,0.71h-0.456v2.383H199.152z M175.537,83.791v-2.383h-1.59
			c-1.249,0-2.337-0.218-3.265-0.653c-0.928-0.435-1.39-1.485-1.39-3.152v-8.912c0-1.098,0.094-2.337,0.283-3.719
			c0.189-1.38,0.491-2.715,0.909-4.002c0.416-1.285,0.983-2.346,1.703-3.179c0.718-0.832,1.606-1.247,2.667-1.247
			c1.098,0,1.873,0.351,2.329,1.05c0.454,0.701,0.68,1.827,0.68,3.377c1.892,0,3.244-0.378,4.059-1.134
			c0.813-0.758,1.22-1.722,1.22-2.896c0-1.325-0.502-2.346-1.504-3.066c-1.004-0.718-2.547-1.079-4.626-1.079
			c-1.667,0-2.973,0.286-3.918,0.853c-0.947,0.567-1.703,1.315-2.27,2.243c-0.569,0.928-1.098,1.959-1.59,3.093h-0.283l-1.079-5.619
			h-8.742v2.383h0.17c1.249,0,2.337,0.227,3.263,0.682c0.928,0.454,1.392,1.514,1.392,3.179v17.71c0,1.779-0.456,2.906-1.363,3.379
			c-0.909,0.472-2.007,0.71-3.293,0.71h-0.17v2.383H175.537z M142.951,83.365c1.552-0.661,2.915-2.052,4.088-4.172h0.283
			l0.737,4.599h9.027v-2.383h-0.17c-1.249,0-2.337-0.218-3.265-0.653c-0.928-0.435-1.39-1.485-1.39-3.152V53.364h-10.161v2.383h0.17
			c1.285,0,2.383,0.237,3.293,0.71c0.907,0.475,1.363,1.6,1.363,3.379V71.53c0,2.761-0.569,4.985-1.703,6.669
			c-1.136,1.684-2.952,2.526-5.451,2.526c-2.308,0-3.878-0.68-4.71-2.043c-0.834-1.363-1.249-3.274-1.249-5.733V53.364h-10.161
			v2.383h0.17c1.249,0,2.337,0.227,3.263,0.682c0.928,0.454,1.392,1.514,1.392,3.179v13.624c0,3.897,0.813,6.726,2.44,8.486
			c1.627,1.76,3.935,2.64,6.925,2.64C139.696,84.358,141.399,84.026,142.951,83.365 M95.494,46.096h4.996
			c4.466,0,7.824,1.497,10.077,4.485c2.251,2.99,3.377,7.287,3.377,12.887s-1.126,9.905-3.377,12.914
			c-2.253,3.009-5.63,4.513-10.134,4.513h-4.939V46.096z M101.739,83.791c4.086,0,7.503-0.832,10.247-2.497
			c2.742-1.665,4.804-4.013,6.186-7.041c1.382-3.026,2.073-6.621,2.073-10.785c0-6.434-1.627-11.411-4.882-14.93
			c-3.255-3.519-7.797-5.279-13.624-5.279h-17.37v2.383h0.737c1.249,0,2.337,0.227,3.265,0.682c0.926,0.454,1.39,1.514,1.39,3.179
			v27.815c0,1.779-0.454,2.906-1.363,3.379c-0.909,0.472-2.005,0.71-3.293,0.71h-0.737v2.383H101.739z"/>
	</g>
	<g>
		<path fill="#702567" d="M78.056,39.16c0.719-6.859,0.041-20.639-1.323-28.096c-0.315-1.727-1.435-3.862-4.412-4.556
			c-7.612-1.773-17.678-2.758-28.41-2.84c-0.933,7.683-1.721,18.332-1.721,30.36l0.012,4.6l0.002,0.254l1.141,0.108
			c0.546,0.05,0.757,0.347,0.835,0.899c0.077,0.543,0.147,1.217,0.147,1.217S64.778,40.986,78.056,39.16z"/>
		<path fill="#6F2667" d="M36.797,48.8l-1.145-0.108c-0.547-0.051-0.776-0.345-0.834-0.9c-0.056-0.516-0.147-1.216-0.147-1.216
			l0.003-0.007c-9.109,0-19.377,0.049-32.655,1.875c1.79,10.256,13.512,33.454,32.395,43.382c0.934-7.683,2.406-26.412,2.406-38.44
			L36.8,49.048l-0.001-0.255L36.797,48.8z"/>
		<path fill="#6F2667" d="M44.321,46.569c9.106,0,19.468,0.049,32.746,1.875C75.276,58.701,63.555,81.899,44.67,91.827
			c-0.931-7.683-2.489-26.412-2.489-38.44l0.069-4.418l-0.009-0.177l1.095-0.1c0.547-0.051,0.768-0.346,0.835-0.9
			c0.062-0.503,0.147-1.216,0.147-1.216L44.321,46.569z"/>
		<g>
			<path fill="#6F2667" d="M19.352,25.801c-0.049,0.094-0.017,0.254,0.034,0.329c0.08-0.008,0.271-0.064,0.375-0.128
				c0.119-0.073,0.153-0.13,0.281-0.222C19.919,25.772,19.37,25.77,19.352,25.801z"/>
			<path fill="#6F2667" d="M19.162,21.25L0.68,39.16c13.197,1.814,24.744,1.943,33.827,1.946h0.167c0,0,0.076-0.613,0.146-1.216
				c0.064-0.555,0.288-0.85,0.835-0.9l1.144-0.108l0.001-0.02L19.162,21.25z M17.551,26.504c-0.081,0.297-0.077,0.678,0.338,0.678
				c0.322,0,0.885-0.276,1.002-0.331l0.048,0.105c-0.092,0.037-0.827,0.627-1.42,0.635c-0.332,0.005-0.445-0.195-0.445-0.389
				C17.074,26.902,17.308,26.795,17.551,26.504z M23.567,30.802c0,0.32-0.487,0.508-0.585,0.652c-0.049,0.072-0.09,0.116-0.11,0.194
				c-0.059-0.207,0.051-0.378,0.051-0.526c0-0.168-0.118-0.248-0.287-0.248c-0.256,0-0.942,0.619-0.528,1.61
				c-0.027-0.352,0.103-0.584,0.162-0.649c0.059-0.066,0.113-0.195,0.101-0.299c0.133,0.245,0.161,0.356,0.161,0.551
				c0,0.424-0.307,0.512-0.163,0.826c0.026,0.086,0.054,0.157,0.099,0.268c0-0.149,0.026-0.279,0.052-0.383
				c0.026-0.104,0.189-0.298,0.208-0.377c0.02-0.079,0.026-0.157,0.006-0.254c0.137,0.17,0.228,0.317,0.228,0.592
				c0,0.319-0.143,0.502-0.183,0.592c-0.039,0.092-0.084,0.182-0.103,0.338c-0.089,0.703-0.435,1.033-0.892,1.033
				c-0.286,0-0.5-0.045-0.682-0.162c0,0.903-1.029,0.832-1.029,1.423c0,0.164,0.111,0.358,0.221,0.469
				c0.11,0.11,0.528,0.264,0.683,0.466c-0.225,0.015-0.467,0.093-0.596,0.243c0.369,0.184,0.36,0.393,0.408,0.673
				c-0.363-0.181-0.529-0.076-0.622,0.022c-0.111,0.117-0.057,0.272-0.185,0.452c-0.058-0.142-0.154-0.262-0.309-0.262
				c-0.157,0-0.478,0.281-0.483,0.372c-0.014,0.247-0.13,0.345-0.353,0.373c-0.166,0.177-0.127,0.268-0.121,0.433
				c-0.144-0.136-0.167-0.224-0.112-0.472c-0.167-0.068-0.147-0.208-0.097-0.331l-0.062-0.044c-0.09,0.08-0.182,0.194-0.404,0.089
				c-0.085,0.036-0.197,0.168-0.215,0.324c-0.058-0.373,0.059-0.502,0.121-0.557c-0.038-0.085,0.016-0.262,0.168-0.327
				c0-0.037-0.014-0.056-0.019-0.074c-0.125,0-0.229-0.05-0.273-0.13c-0.12-0.023-0.283,0.12-0.314,0.206
				c0-0.209,0.167-0.421,0.29-0.472c0.14-0.278,0.407-0.327,0.568-0.166c0.089,0.089,0.303,0.185,0.52,0.185
				c0.215,0,0.413-0.179,0.465-0.25c0.052-0.072,0.058-0.085,0.084-0.144c0.047-0.107,0.138-0.233-0.084-0.513
				c-0.176-0.221-0.613-0.649-0.621-0.956c-0.014-0.504,0.22-0.797,0.447-0.998c-0.08,0-0.059,0-0.18,0
				c-0.321,0-0.349-0.201-0.677-0.201c-0.24,0-0.382,0.241-0.382,0.449c0,0.208,0.037,0.252,0.11,0.387
				c0.1,0.185,0.136,0.287,0.11,0.475c-0.189-0.171-0.459-0.257-0.674-0.067c-0.084,0.24-0.135,0.334-0.29,0.45
				c-0.013-0.2-0.425-0.52-0.793-0.179c-0.036,0.086-0.068,0.277-0.325,0.277c-0.153,0-0.138-0.037-0.202-0.063
				c-0.105,0.091-0.193,0.192-0.224,0.323c-0.054-0.198,0.017-0.37,0.085-0.453c-0.025-0.086-0.017-0.3,0.093-0.359
				c-0.033-0.037-0.02-0.013-0.05-0.065c-0.16,0.135-0.412,0.152-0.522-0.002c-0.093,0.017-0.181,0.082-0.28,0.283
				c-0.024-0.203,0.114-0.434,0.209-0.5c0.002-0.154,0.213-0.288,0.431-0.242c0.017-0.026-0.004-0.042,0.021-0.075
				c0.022-0.032-0.009-0.017-0.009-0.017c-0.063-0.035-0.269-0.043-0.256-0.301c-0.126-0.044-0.244,0.015-0.331,0.09
				c0.085-0.221,0.27-0.291,0.411-0.304c0.052-0.097,0.209-0.108,0.29-0.108c0.151,0,0.252,0.072,0.277,0.166
				c0.152,0.27,0.497,0.359,0.835,0.359c0.17,0,0.314-0.129,0.314-0.323c0-0.195-0.331-0.764-0.331-1.025
				c0-0.259,0.466-0.759,0.779-0.759c0.952,0,1.172,0.398,1.386,0.398c0.3,0,0.34-0.062,0.387-0.11
				c-0.449-0.552-0.734-0.541-1.162-0.834c-0.215-0.148-0.326-0.397-0.359-0.63c-0.264,0.062-0.523,0.415-0.647,0.635
				c-0.059-0.104-0.15-0.174-0.26-0.174c-0.212,0-0.363,0.276-0.462,0.512c-0.061-0.27-0.223-0.519-0.531-0.519
				c-0.173,0-0.37,0.074-0.419,0.186c-0.049,0.11-0.212,0.277-0.467,0.212c-0.091,0.065-0.176,0.091-0.24,0.374
				c-0.087-0.354,0.001-0.42,0.05-0.508c-0.05-0.233,0.047-0.318,0.091-0.374l-0.025-0.062c-0.138,0.045-0.342,0.029-0.403-0.09
				c-0.156-0.007-0.2,0.013-0.334,0.212c0.026-0.225,0.155-0.411,0.296-0.466c0.053-0.132,0.236-0.187,0.382-0.187
				c0.013-0.037,0.023-0.037,0.03-0.068c-0.094-0.053-0.176-0.172-0.156-0.314c-0.117-0.135-0.246-0.051-0.353-0.011
				c0.187-0.195,0.408-0.267,0.557-0.18c0.322-0.107,0.433,0.043,0.463,0.223c0.037,0.207,0.359,0.234,0.693,0.234
				c0.73,0,1.889-0.68,1.805-1.219c-0.173-0.043-0.192-0.037-0.327-0.037c-0.39,0-0.878,0.488-1.262,0.495
				c0.192-0.217,0.074-0.437,0.179-0.598c-0.211-0.005-0.426,0.127-0.828,0.091c0.136-0.081,0.229-0.365,0.229-0.463
				c0-0.099,0-0.297-0.434-0.297c-0.043,0.012-0.16,0.049-0.247,0.049c-0.102,0-0.388-0.026-0.388-0.253
				c-0.143-0.031-0.247,0.006-0.4,0.121c0.03-0.157,0.326-0.353,0.413-0.367c0.06-0.12,0.181-0.173,0.24-0.167
				c0.012-0.063,0.01-0.006,0.013-0.08c-0.147-0.02-0.333-0.074-0.329-0.318c-0.104-0.096-0.17-0.116-0.404-0.055
				c0.29-0.217,0.393-0.185,0.487-0.148c0.213-0.16,0.386-0.072,0.446-0.004c0.025-0.032,0.048-0.037,0.06-0.062
				c-0.05-0.155-0.021-0.306,0.046-0.374c-0.005-0.169-0.083-0.22-0.239-0.253c0.32,0.006,0.45,0.08,0.555,0.198
				c0.185,0.024,0.3,0.186,0.303,0.302c0.005,0.303-0.315,0.51,0.303,0.83c0.192,0.098,0.464,0.197,0.736,0.278
				c0.273,0.079,0.61,0.203,0.747,0.203c-0.106-0.167-0.062-0.334-0.236-0.501c0.197-0.013,0.439,0.055,0.618,0.092
				c-0.037-0.241,0.023-0.242-0.138-0.391c0.136,0.019,0.331,0.022,0.435,0.033c0.704,0.075,0.713-0.274,0.85-0.717
				c-0.24,0.014-0.644,0.073-1.027,0.327c0.037-0.131-0.004-0.236-0.004-0.348c0-0.21,0.165-0.253,0.247-0.253
				c0.038,0,0.142-0.016,0.222-0.016c0.154,0,0.369-0.174,0.269-0.517c-0.047-0.164-0.173-0.266-0.316-0.224
				c-0.105,0.03-0.129,0.028-0.282,0.085c-0.118,0.044-0.155,0.136-0.168,0.259c-0.024-0.056-0.066-0.214-0.086-0.253
				c-0.023-0.047-0.039-0.075-0.082-0.18c-0.013-0.034-0.01-0.034-0.029-0.077c-0.074-0.173,0.043-0.317,0.192-0.347
				c0.124-0.024,0.322-0.074,0.445-0.111c0.244-0.073,0.319-0.169,0.371-0.297c0.054-0.136,0.088-0.188,0.313-0.188
				c0.07,0,0.325,0.006,0.442,0.006c0.34,0,0.723-0.277,0.597-0.571c0.238,0.042,0.332,0.422,0.274,0.571
				c0.11,0,0.48-0.072,0.565-0.143c-0.002,0.256-0.202,0.572-0.344,0.651c0.182,0.018,0.502-0.008,0.599-0.092
				c-0.059,0.195-0.267,0.61-0.398,0.669c0.318,0.11,0.525,0.281,0.668,0.674c-0.241-0.099-0.383,0.02-0.594-0.012
				c0.434,0.507,0.594,1.278,0.72,1.47c-0.117-0.064-0.352-0.195-0.527-0.259c0.18,0.42-0.086,0.835-0.046,1.059
				c-0.137-0.078-0.313-0.176-0.37-0.286c-0.071,0.169-0.22,0.502-0.163,0.93c-0.11-0.117-0.299-0.208-0.383-0.273
				c-0.162,0.234-0.261,0.384-0.261,0.983c0,0.818,0.381,1.6,0.547,1.91c0.253,0.475,0.316,0.88,0.357,1.041
				c0.081,0.319,0.309,0.526,0.612,0.526c0.293,0,0.539-0.267,0.539-0.592c0-0.591-0.722-0.968-0.722-2.008
				c0-0.683,0.526-1.023,0.541-1.459c0.013-0.385-0.34-0.146-0.604-0.318c0.338-0.067,0.537-0.441,0.837-0.425
				c0.265,0.016,0.326,0.156,0.34,0.291c0.019,0.186-0.101,0.401-0.14,0.479c0.294-0.253,0.425-0.642,0.425-0.837
				c0-0.292-0.411-0.617-0.305-1.177c0.015-0.076,0.014-0.065,0.032-0.11c0.121,0.631,1.016,0.793,1.016,1.417
				c0,0.588-0.508,0.477-0.799,0.885C23.207,30.388,23.567,30.452,23.567,30.802z"/>
		</g>
		<g>
			<path fill="#6F2667" d="M35.1,3.668C24.33,3.759,14.221,4.81,6.689,6.508C3.708,7.18,2.6,9.338,2.278,11.064
				C1.364,15.951,0.182,25.614,0.556,35.55c1.832-1.744,18.718-18.165,18.718-18.165l17.546,17.518
				C36.819,22.875,36.032,11.351,35.1,3.668z M8.954,9.334c-0.081,0.302-0.078,0.69,0.344,0.69c0.328,0,0.9-0.281,1.019-0.337
				l0.049,0.108c-0.095,0.038-0.842,0.638-1.444,0.646c-0.338,0.005-0.453-0.199-0.453-0.397C8.469,9.738,8.709,9.629,8.954,9.334z
				 M15.076,13.706c0,0.325-0.496,0.516-0.596,0.663c-0.05,0.073-0.091,0.119-0.112,0.197c-0.059-0.21,0.052-0.383,0.052-0.535
				c0-0.171-0.12-0.251-0.292-0.251c-0.26,0-0.957,0.629-0.537,1.638c-0.028-0.358,0.104-0.594,0.165-0.66
				c0.059-0.067,0.115-0.198,0.101-0.304c0.137,0.25,0.165,0.361,0.165,0.56c0,0.432-0.311,0.521-0.166,0.841
				c0.027,0.088,0.055,0.159,0.101,0.272c0-0.151,0.027-0.283,0.054-0.389c0.026-0.105,0.191-0.303,0.211-0.384
				c0.021-0.081,0.026-0.16,0.007-0.258c0.139,0.172,0.231,0.323,0.231,0.602c0,0.324-0.146,0.51-0.187,0.603
				c-0.038,0.094-0.085,0.185-0.104,0.343c-0.09,0.715-0.443,1.051-0.906,1.051c-0.291,0-0.509-0.046-0.696-0.164
				c0,0.919-1.046,0.846-1.046,1.449c0,0.166,0.113,0.363,0.225,0.476c0.112,0.112,0.537,0.269,0.694,0.474
				c-0.228,0.016-0.475,0.095-0.606,0.248c0.376,0.187,0.367,0.399,0.414,0.685c-0.37-0.184-0.538-0.077-0.633,0.022
				c-0.113,0.12-0.059,0.277-0.188,0.461c-0.06-0.146-0.157-0.268-0.315-0.268c-0.16,0-0.487,0.288-0.491,0.38
				c-0.013,0.251-0.132,0.351-0.36,0.379c-0.169,0.181-0.129,0.273-0.123,0.442c-0.146-0.138-0.17-0.229-0.114-0.481
				c-0.17-0.068-0.149-0.211-0.098-0.336l-0.064-0.045c-0.091,0.082-0.185,0.196-0.411,0.091c-0.087,0.037-0.2,0.17-0.218,0.329
				c-0.06-0.379,0.061-0.511,0.123-0.566c-0.039-0.087,0.016-0.266,0.17-0.333c0-0.037-0.013-0.056-0.019-0.075
				c-0.125,0-0.232-0.051-0.277-0.132c-0.122-0.026-0.289,0.12-0.32,0.209c0-0.213,0.17-0.429,0.296-0.48
				c0.141-0.282,0.413-0.333,0.577-0.169c0.09,0.091,0.308,0.189,0.528,0.189c0.219,0,0.42-0.182,0.474-0.255
				c0.052-0.073,0.06-0.086,0.085-0.147c0.049-0.108,0.141-0.236-0.085-0.522c-0.178-0.225-0.624-0.661-0.633-0.972
				c-0.013-0.513,0.225-0.811,0.456-1.016c-0.081,0-0.059,0-0.184,0c-0.327,0-0.356-0.204-0.689-0.204
				c-0.244,0-0.389,0.244-0.389,0.457c0,0.212,0.038,0.256,0.112,0.394c0.102,0.189,0.138,0.292,0.111,0.484
				c-0.193-0.174-0.467-0.262-0.685-0.069c-0.085,0.247-0.138,0.341-0.295,0.458c-0.013-0.203-0.431-0.528-0.805-0.182
				c-0.038,0.087-0.07,0.282-0.332,0.282c-0.155,0-0.14-0.038-0.205-0.064c-0.107,0.093-0.196,0.196-0.228,0.328
				c-0.055-0.201,0.017-0.377,0.087-0.461c-0.025-0.087-0.018-0.305,0.095-0.365c-0.034-0.037-0.021-0.013-0.052-0.066
				c-0.163,0.138-0.419,0.154-0.531-0.003c-0.094,0.018-0.185,0.085-0.285,0.287c-0.024-0.206,0.116-0.44,0.212-0.508
				c0.002-0.158,0.217-0.293,0.439-0.245c0.016-0.027-0.003-0.045,0.021-0.077C7.032,17.98,7,17.995,7,17.995
				c-0.064-0.035-0.274-0.044-0.261-0.305c-0.128-0.046-0.249,0.015-0.337,0.09c0.087-0.225,0.275-0.296,0.419-0.31
				c0.053-0.097,0.214-0.108,0.296-0.108c0.154,0,0.256,0.073,0.282,0.169c0.155,0.275,0.505,0.366,0.85,0.366
				c0.173,0,0.318-0.132,0.318-0.33c0-0.199-0.337-0.777-0.337-1.043c0-0.263,0.475-0.772,0.794-0.772
				c0.968,0,1.192,0.405,1.409,0.405c0.305,0,0.346-0.064,0.394-0.111c-0.458-0.562-0.749-0.55-1.185-0.85
				c-0.219-0.151-0.331-0.403-0.364-0.641c-0.271,0.063-0.532,0.423-0.659,0.647c-0.06-0.106-0.153-0.178-0.264-0.178
				c-0.215,0-0.37,0.281-0.472,0.521c-0.062-0.275-0.225-0.529-0.54-0.529c-0.176,0-0.376,0.076-0.426,0.19
				c-0.05,0.112-0.217,0.283-0.475,0.217c-0.094,0.066-0.179,0.092-0.245,0.381c-0.088-0.361,0.001-0.428,0.051-0.517
				c-0.051-0.237,0.048-0.323,0.092-0.379l-0.025-0.064c-0.141,0.045-0.349,0.03-0.411-0.091c-0.158-0.007-0.203,0.013-0.339,0.216
				c0.027-0.23,0.157-0.419,0.302-0.474c0.054-0.135,0.241-0.19,0.389-0.19c0.013-0.038,0.024-0.038,0.031-0.07
				c-0.096-0.053-0.178-0.174-0.159-0.319c-0.119-0.138-0.25-0.052-0.359-0.012c0.19-0.197,0.414-0.272,0.566-0.184
				c0.327-0.109,0.441,0.044,0.472,0.227c0.037,0.21,0.365,0.239,0.705,0.239c0.743,0,1.923-0.692,1.836-1.239
				c-0.176-0.045-0.195-0.038-0.333-0.038c-0.396,0-0.893,0.496-1.283,0.503c0.195-0.221,0.075-0.444,0.182-0.608
				c-0.214-0.006-0.433,0.129-0.843,0.093c0.138-0.082,0.233-0.372,0.233-0.472c0-0.101,0-0.303-0.441-0.303
				c-0.044,0.013-0.162,0.051-0.251,0.051c-0.104,0-0.396-0.026-0.396-0.257c-0.145-0.032-0.25,0.006-0.407,0.123
				c0.032-0.159,0.332-0.36,0.421-0.374c0.061-0.122,0.183-0.176,0.244-0.169c0.013-0.063,0.011-0.006,0.015-0.081
				c-0.15-0.021-0.34-0.075-0.335-0.324c-0.106-0.098-0.173-0.119-0.411-0.057c0.295-0.22,0.4-0.187,0.496-0.152
				c0.216-0.161,0.393-0.073,0.454-0.003c0.025-0.032,0.049-0.037,0.06-0.063c-0.05-0.158-0.021-0.312,0.047-0.381
				c-0.005-0.17-0.084-0.223-0.243-0.257c0.326,0.006,0.458,0.081,0.565,0.201c0.187,0.025,0.306,0.189,0.309,0.308
				c0.006,0.309-0.321,0.519,0.307,0.844c0.196,0.1,0.472,0.201,0.75,0.283c0.278,0.081,0.621,0.207,0.76,0.207
				c-0.108-0.17-0.063-0.339-0.241-0.51c0.203-0.013,0.447,0.056,0.631,0.093c-0.039-0.245,0.023-0.246-0.141-0.397
				c0.138,0.02,0.336,0.022,0.444,0.034c0.715,0.076,0.725-0.278,0.864-0.729c-0.244,0.013-0.655,0.074-1.045,0.334
				c0.038-0.134-0.005-0.241-0.005-0.355c0-0.214,0.169-0.257,0.251-0.257c0.039,0,0.144-0.018,0.226-0.018
				c0.156,0,0.375-0.178,0.273-0.526c-0.049-0.167-0.176-0.271-0.322-0.227c-0.107,0.031-0.131,0.028-0.288,0.086
				C9.777,9.589,9.74,9.683,9.727,9.81C9.704,9.752,9.659,9.591,9.639,9.552c-0.023-0.048-0.04-0.078-0.083-0.184
				c-0.013-0.034-0.01-0.034-0.03-0.079C9.452,9.114,9.57,8.966,9.722,8.937c0.126-0.026,0.328-0.077,0.452-0.114
				c0.249-0.075,0.325-0.171,0.379-0.302c0.055-0.138,0.089-0.192,0.317-0.192c0.072,0,0.331,0.007,0.45,0.007
				c0.347,0,0.737-0.282,0.609-0.582c0.242,0.043,0.338,0.429,0.278,0.582c0.113,0,0.489-0.073,0.575-0.145
				c-0.002,0.261-0.205,0.582-0.35,0.661c0.185,0.019,0.51-0.008,0.609-0.093c-0.06,0.198-0.272,0.621-0.405,0.682
				c0.323,0.111,0.535,0.284,0.679,0.685c-0.246-0.101-0.39,0.021-0.604-0.013c0.441,0.516,0.604,1.301,0.731,1.495
				c-0.118-0.064-0.357-0.197-0.535-0.262c0.183,0.428-0.087,0.849-0.047,1.077c-0.137-0.08-0.317-0.179-0.376-0.291
				c-0.073,0.173-0.225,0.51-0.166,0.947c-0.112-0.12-0.304-0.212-0.39-0.279c-0.165,0.238-0.266,0.391-0.266,1.001
				c0,0.832,0.388,1.628,0.557,1.943c0.258,0.485,0.322,0.896,0.363,1.06c0.081,0.325,0.314,0.535,0.622,0.535
				c0.299,0,0.55-0.271,0.55-0.602c0-0.602-0.735-0.984-0.735-2.043c0-0.695,0.535-1.042,0.55-1.485
				c0.014-0.392-0.346-0.149-0.614-0.324c0.343-0.068,0.546-0.448,0.852-0.431c0.27,0.016,0.332,0.158,0.346,0.297
				c0.02,0.188-0.103,0.407-0.143,0.486c0.299-0.257,0.432-0.652,0.432-0.851c0-0.298-0.418-0.628-0.311-1.199
				c0.016-0.077,0.015-0.066,0.034-0.111c0.124,0.64,1.033,0.806,1.033,1.441c0,0.599-0.517,0.485-0.812,0.901
				C14.71,13.284,15.076,13.351,15.076,13.706z M26.2,8.144c-0.086,0.316-0.082,0.72,0.358,0.72c0.341,0,0.938-0.293,1.063-0.351
				l0.051,0.112c-0.099,0.04-0.877,0.665-1.506,0.673c-0.351,0.005-0.471-0.207-0.471-0.413C25.695,8.566,25.944,8.453,26.2,8.144z
				 M32.58,12.702c0,0.339-0.517,0.539-0.621,0.691c-0.051,0.076-0.095,0.123-0.116,0.205c-0.062-0.219,0.055-0.399,0.055-0.557
				c0-0.177-0.125-0.261-0.305-0.261c-0.271,0-0.998,0.656-0.559,1.707c-0.03-0.373,0.109-0.62,0.171-0.688
				c0.063-0.069,0.12-0.207,0.106-0.316c0.143,0.259,0.171,0.376,0.171,0.584c0,0.45-0.324,0.543-0.172,0.876
				c0.028,0.091,0.057,0.166,0.105,0.284c0-0.158,0.029-0.296,0.056-0.406c0.027-0.11,0.2-0.317,0.221-0.4
				c0.02-0.083,0.027-0.167,0.006-0.27c0.145,0.18,0.242,0.336,0.242,0.627c0,0.338-0.151,0.532-0.194,0.628
				c-0.04,0.096-0.089,0.193-0.11,0.358c-0.093,0.746-0.461,1.096-0.945,1.096c-0.304,0-0.53-0.047-0.724-0.171
				c0,0.958-1.09,0.883-1.09,1.509c0,0.173,0.117,0.379,0.234,0.497c0.116,0.117,0.559,0.28,0.724,0.494
				c-0.238,0.017-0.495,0.099-0.633,0.258c0.393,0.194,0.383,0.415,0.433,0.713c-0.385-0.192-0.562-0.081-0.659,0.022
				c-0.118,0.125-0.061,0.289-0.196,0.481c-0.062-0.152-0.164-0.279-0.329-0.279c-0.166,0-0.507,0.299-0.512,0.395
				c-0.014,0.262-0.138,0.365-0.375,0.395c-0.177,0.189-0.135,0.284-0.128,0.461c-0.153-0.145-0.177-0.239-0.119-0.501
				c-0.177-0.073-0.155-0.221-0.103-0.351l-0.067-0.047c-0.095,0.085-0.193,0.205-0.428,0.095c-0.09,0.038-0.209,0.178-0.227,0.343
				c-0.061-0.395,0.062-0.532,0.128-0.59c-0.04-0.089,0.017-0.277,0.177-0.347c0-0.039-0.014-0.059-0.02-0.078
				c-0.131,0-0.241-0.053-0.29-0.137c-0.126-0.026-0.3,0.126-0.332,0.217c0-0.221,0.176-0.447,0.307-0.5
				c0.148-0.295,0.431-0.348,0.602-0.176c0.094,0.093,0.321,0.196,0.55,0.196c0.229,0,0.438-0.19,0.494-0.266
				c0.055-0.077,0.062-0.089,0.089-0.153c0.05-0.113,0.146-0.247-0.089-0.544c-0.186-0.233-0.651-0.688-0.659-1.012
				c-0.015-0.535,0.233-0.845,0.474-1.058c-0.084,0-0.062,0-0.19,0c-0.341,0-0.371-0.214-0.718-0.214
				c-0.255,0-0.406,0.256-0.406,0.477c0,0.22,0.04,0.267,0.118,0.41c0.106,0.197,0.144,0.304,0.115,0.504
				c-0.2-0.181-0.487-0.273-0.714-0.072c-0.088,0.256-0.144,0.354-0.307,0.479c-0.014-0.214-0.448-0.552-0.838-0.191
				c-0.039,0.091-0.072,0.294-0.345,0.294c-0.161,0-0.145-0.038-0.213-0.067c-0.112,0.097-0.205,0.205-0.237,0.343
				c-0.057-0.21,0.017-0.392,0.091-0.48c-0.026-0.092-0.018-0.319,0.098-0.381c-0.035-0.038-0.022-0.013-0.053-0.067
				c-0.169,0.144-0.437,0.161-0.552-0.002c-0.1,0.019-0.194,0.087-0.298,0.299c-0.025-0.215,0.121-0.46,0.222-0.53
				c0.002-0.163,0.226-0.306,0.456-0.256c0.018-0.028-0.003-0.047,0.022-0.081c0.024-0.033-0.008-0.018-0.008-0.018
				c-0.068-0.036-0.287-0.045-0.272-0.319c-0.133-0.047-0.259,0.016-0.351,0.095c0.091-0.234,0.286-0.309,0.437-0.323
				c0.053-0.102,0.222-0.113,0.307-0.113c0.16,0,0.268,0.076,0.293,0.176c0.162,0.286,0.528,0.382,0.887,0.382
				c0.179,0,0.331-0.137,0.331-0.343c0-0.208-0.353-0.81-0.353-1.087c0-0.276,0.495-0.805,0.826-0.805
				c1.01,0,1.242,0.421,1.469,0.421c0.318,0,0.361-0.066,0.41-0.117c-0.476-0.585-0.779-0.573-1.234-0.885
				c-0.229-0.157-0.345-0.42-0.379-0.668c-0.282,0.066-0.555,0.44-0.687,0.674c-0.063-0.11-0.159-0.186-0.276-0.186
				c-0.225,0-0.385,0.293-0.491,0.542c-0.064-0.286-0.235-0.55-0.563-0.55c-0.184,0-0.392,0.079-0.444,0.198
				c-0.053,0.116-0.225,0.295-0.495,0.225c-0.098,0.069-0.187,0.097-0.255,0.396c-0.092-0.375,0.001-0.446,0.053-0.538
				c-0.053-0.246,0.049-0.336,0.096-0.396l-0.026-0.066c-0.146,0.048-0.363,0.031-0.427-0.095c-0.164-0.008-0.212,0.013-0.354,0.225
				c0.029-0.24,0.164-0.436,0.314-0.494c0.057-0.142,0.251-0.198,0.406-0.198c0.013-0.04,0.025-0.04,0.032-0.073
				c-0.1-0.055-0.186-0.182-0.165-0.333c-0.124-0.144-0.261-0.054-0.374-0.012c0.199-0.206,0.433-0.283,0.591-0.192
				c0.341-0.112,0.459,0.046,0.491,0.236c0.038,0.22,0.381,0.25,0.734,0.25c0.775,0,2.004-0.721,1.915-1.292
				c-0.183-0.046-0.203-0.04-0.347-0.04c-0.414,0-0.931,0.519-1.338,0.525c0.205-0.23,0.079-0.464,0.19-0.634
				c-0.223-0.006-0.451,0.135-0.878,0.097c0.144-0.085,0.242-0.387,0.242-0.491c0-0.106,0-0.316-0.459-0.316
				c-0.045,0.012-0.169,0.053-0.262,0.053c-0.108,0-0.413-0.028-0.413-0.268c-0.15-0.033-0.261,0.006-0.423,0.128
				c0.032-0.166,0.346-0.375,0.439-0.389c0.063-0.129,0.191-0.184,0.253-0.177c0.014-0.066,0.011-0.006,0.015-0.085
				c-0.156-0.021-0.354-0.078-0.35-0.337c-0.111-0.102-0.18-0.124-0.428-0.059c0.308-0.229,0.418-0.195,0.517-0.157
				c0.225-0.169,0.41-0.076,0.473-0.003c0.027-0.034,0.051-0.039,0.063-0.066c-0.052-0.164-0.021-0.324,0.05-0.396
				c-0.006-0.178-0.087-0.234-0.253-0.268c0.34,0.006,0.477,0.085,0.588,0.21c0.196,0.026,0.319,0.198,0.323,0.321
				c0.005,0.321-0.334,0.541,0.32,0.879c0.204,0.105,0.493,0.209,0.781,0.295c0.289,0.085,0.647,0.215,0.792,0.215
				c-0.113-0.176-0.067-0.354-0.251-0.531c0.21-0.013,0.465,0.059,0.656,0.098c-0.039-0.257,0.024-0.258-0.146-0.415
				c0.144,0.02,0.35,0.023,0.461,0.035c0.746,0.08,0.757-0.29,0.902-0.761c-0.255,0.014-0.683,0.078-1.089,0.349
				c0.04-0.141-0.004-0.252-0.004-0.371c0-0.223,0.175-0.268,0.262-0.268c0.039,0,0.15-0.018,0.234-0.018
				c0.164,0,0.392-0.185,0.286-0.549c-0.051-0.173-0.183-0.282-0.335-0.237c-0.111,0.032-0.137,0.029-0.3,0.09
				c-0.126,0.046-0.164,0.143-0.178,0.275c-0.026-0.06-0.071-0.227-0.092-0.269c-0.024-0.05-0.041-0.079-0.086-0.192
				c-0.015-0.035-0.011-0.036-0.031-0.081C26.718,7.915,26.842,7.763,27,7.732c0.131-0.027,0.342-0.08,0.472-0.119
				c0.26-0.077,0.339-0.178,0.393-0.315c0.058-0.143,0.094-0.2,0.331-0.2c0.075,0,0.346,0.006,0.469,0.006
				c0.362,0,0.768-0.294,0.634-0.607c0.252,0.046,0.353,0.448,0.29,0.607c0.117,0,0.51-0.076,0.599-0.152
				c-0.002,0.271-0.213,0.606-0.365,0.69c0.193,0.02,0.533-0.008,0.635-0.097c-0.063,0.206-0.283,0.647-0.421,0.71
				c0.336,0.116,0.557,0.297,0.708,0.715c-0.256-0.105-0.406,0.021-0.629-0.013c0.46,0.537,0.63,1.356,0.763,1.558
				c-0.124-0.067-0.373-0.205-0.558-0.274c0.19,0.446-0.092,0.886-0.049,1.123c-0.144-0.084-0.332-0.187-0.391-0.304
				c-0.077,0.181-0.235,0.532-0.173,0.987c-0.117-0.125-0.318-0.221-0.407-0.29c-0.172,0.249-0.276,0.408-0.276,1.043
				c0,0.867,0.404,1.696,0.58,2.025c0.269,0.505,0.336,0.934,0.378,1.105c0.085,0.338,0.329,0.559,0.649,0.559
				c0.31,0,0.572-0.283,0.572-0.628c0-0.628-0.765-1.026-0.765-2.13c0-0.724,0.558-1.086,0.573-1.547
				c0.015-0.409-0.361-0.155-0.639-0.338c0.358-0.071,0.569-0.467,0.888-0.45c0.281,0.016,0.345,0.165,0.36,0.309
				c0.02,0.196-0.108,0.426-0.149,0.508c0.311-0.269,0.45-0.681,0.45-0.888c0-0.31-0.436-0.653-0.322-1.248
				c0.015-0.081,0.014-0.069,0.034-0.117c0.128,0.668,1.076,0.841,1.076,1.503c0,0.624-0.537,0.505-0.845,0.938
				C32.199,12.263,32.58,12.33,32.58,12.702z"/>
			<path fill="#6F2667" d="M10.787,8.619c-0.05,0.095-0.017,0.258,0.034,0.334c0.082-0.008,0.277-0.064,0.382-0.129
				c0.122-0.075,0.156-0.133,0.287-0.225C11.364,8.589,10.806,8.585,10.787,8.619z"/>
			<path fill="#6F2667" d="M28.111,7.4c-0.053,0.099-0.018,0.269,0.036,0.349c0.085-0.008,0.288-0.067,0.398-0.135
				c0.127-0.077,0.162-0.138,0.298-0.234C28.712,7.369,28.129,7.366,28.111,7.4z"/>
		</g>
	</g>
</g>
</svg>
